<svg width="30" height="30" viewBox="0 0 30 30" fill="none" xmlns="http://www.w3.org/2000/svg">
<g clip-path="url(#clip0_37_2553)">
<path d="M15 30C6.71573 30 0 23.2843 0 15C0 6.71573 6.71573 0 15 0C23.2843 0 30 6.71573 30 15C30 23.2843 23.2843 30 15 30Z" fill="#C6C4CB"/>
<path d="M12.5618 9.08413C13.512 8.36925 14.6641 8.85944 14.739 10.0059C14.7827 10.6744 14.8216 11.5284 14.8454 12.6114C17.7176 12.6494 20.433 12.7563 21.8023 12.8356C22.6824 12.8866 23.0169 13.4028 23.0944 14.2338C23.1134 14.4369 23.125 14.6646 23.125 14.9176C23.125 15.1982 23.1107 15.4477 23.0879 15.667C23.0056 16.4616 22.7152 16.9661 21.875 17.0399C20.5149 17.1594 17.7691 17.3244 14.8455 17.3825C14.8218 18.4683 14.7829 19.3243 14.739 19.9941C14.6641 21.1407 13.5117 21.6309 12.5613 20.9159C11.9203 20.4338 11.1085 19.7879 10.1107 18.9329C8.58023 17.6214 7.70598 16.6379 7.21448 15.9824C6.7618 15.3788 6.76186 14.6219 7.21455 14.0183C7.70611 13.3629 8.5803 12.3794 10.1107 11.0678C11.1087 10.2124 11.9207 9.56638 12.5618 9.08413Z" fill="#0E0420"/>
</g>
<defs>
<clipPath id="clip0_37_2553">
<rect width="30" height="30" fill="white"/>
</clipPath>
</defs>
</svg>
