<svg width="22" height="22" viewBox="0 0 22 22" fill="none" xmlns="http://www.w3.org/2000/svg">
<g clip-path="url(#clip0_156_12249)">
<path d="M11 22C4.92487 22 -1.90735e-06 17.0751 -1.90735e-06 11C-1.90735e-06 4.92487 4.92487 0 11 0C17.0751 0 22 4.92487 22 11C22 17.0751 17.0751 22 11 22Z" fill="#FFE7C0"/>
<path d="M11 1C5.47715 1 1 5.47715 1 11C1 16.5228 5.47715 21 11 21C16.5228 21 21 16.5228 21 11C21 5.47715 16.5228 1 11 1Z" stroke="#FFB02E" stroke-opacity="0.2" stroke-width="2"/>
<path d="M10.7927 14.6141C11.4769 14.6141 11.9711 14.4945 12.2752 14.2553C12.592 14.0161 12.7504 13.723 12.7504 13.3761C12.7504 13.0651 12.63 12.8139 12.3892 12.6225C12.1484 12.4311 11.7874 12.2637 11.3058 12.1202L10.2605 11.7972C9.74098 11.6417 9.27216 11.4742 8.85399 11.2948C8.43588 11.1154 8.08108 10.9001 7.78963 10.6489C7.49819 10.3977 7.27016 10.0986 7.10543 9.75175C6.94071 9.40487 6.85832 8.9922 6.85832 8.51376C6.85832 7.70036 7.12441 7.02452 7.65659 6.48629C8.18877 5.94801 8.94903 5.58913 9.93738 5.40972V4.75407C9.93738 4.30769 10.2444 3.90954 10.6897 3.87797C10.7945 3.87055 10.8989 3.8667 11.0017 3.8667C11.4706 3.8667 11.8063 3.94447 12.0091 4.09995C12.2245 4.25544 12.3322 4.53654 12.3322 4.94321V5.33795C13.1431 5.42171 13.802 5.60712 14.3088 5.89416C14.8157 6.16927 15.0691 6.53414 15.0691 6.98866C15.0691 7.22357 14.9994 7.43829 14.8818 7.62914C14.6465 8.01073 14.121 7.98587 13.7003 7.83099C13.5436 7.77329 13.3727 7.71978 13.1875 7.67044C12.706 7.52695 12.1801 7.45517 11.6099 7.45517C10.9764 7.45517 10.5012 7.55681 10.1844 7.76015C9.88035 7.95155 9.72833 8.20273 9.72833 8.51376C9.72833 8.76494 9.82969 8.96828 10.0324 9.12376C10.2478 9.2793 10.5709 9.4228 11.0017 9.55441L12.0661 9.85944C13.2065 10.1943 14.0808 10.6369 14.689 11.1871C15.3099 11.7374 15.6203 12.479 15.6203 13.412C15.6203 14.2373 15.3416 14.9371 14.784 15.5112C14.2265 16.0735 13.4092 16.4502 12.3322 16.6416V17.2793C12.3322 17.7257 12.0251 18.1239 11.5798 18.1555C11.4751 18.1629 11.3707 18.1667 11.2678 18.1667C10.799 18.1667 10.4569 18.0889 10.2415 17.9334C10.0387 17.778 9.93738 17.4969 9.93738 17.0902V16.7313C9.01239 16.6356 8.25845 16.4263 7.67562 16.1033C7.10543 15.7684 6.82031 15.3498 6.82031 14.8474C6.82031 14.5236 6.95292 14.2468 7.16032 14.0196C7.45457 13.6973 7.94957 13.7752 8.33133 13.9868C8.53488 14.0996 8.75978 14.207 9.00607 14.3091C9.52554 14.5124 10.1211 14.6141 10.7927 14.6141Z" fill="#FFB02E"/>
</g>
<defs>
<clipPath id="clip0_156_12249">
<rect width="22" height="22" fill="white"/>
</clipPath>
</defs>
</svg>
