<svg width="40" height="40" viewBox="0 0 40 40" fill="none" xmlns="http://www.w3.org/2000/svg">
<circle cx="20" cy="20" r="20" fill="#F3F3F3"/>
<path d="M18.8541 10.0298C19.4015 9.87281 19.8705 10.3588 19.9049 10.9442C19.9764 12.1617 20.2209 13.5028 20.867 14.4008C21.2029 14.8678 21.8493 14.9793 22.2516 14.5721C22.6613 14.1575 22.9818 13.5285 23.2301 12.8491C23.4764 12.1748 24.2626 11.8555 24.8129 12.2989C27.3737 14.3621 30 17.5098 30 21.7419C30 27.443 25.5229 30 20 30C14.4771 30 10 27.443 10 21.7419C10 15.9496 14.9197 12.1887 17.8577 10.4591C18.177 10.2712 18.5115 10.1281 18.8541 10.0298Z" fill="#DCDBDE"/>
<path d="M20.3616 19.5933C20.1319 19.4689 19.8681 19.4689 19.6384 19.5933C18.7441 20.0776 16.5 21.5348 16.5 23.965C16.5 26.0603 18.067 27 20 27C21.933 27 23.5 26.0603 23.5 23.965C23.5 21.5348 21.256 20.0776 20.3616 19.5933Z" fill="#87838F"/>
</svg>
