<svg width="24" height="24" viewBox="0 0 24 24" fill="none" xmlns="http://www.w3.org/2000/svg">
<path fill-rule="evenodd" clip-rule="evenodd" d="M5.78113 7.17705C5.95213 4.26993 8.35954 2 11.2716 2H12.7284C15.6405 2 18.0479 4.26993 18.2189 7.17705L18.4974 11.9119C18.5461 12.7389 17.9151 13.4487 17.0881 13.4974C16.2611 13.5461 15.5513 12.9151 15.5026 12.0881L15.2241 7.3532C15.1464 6.0318 14.0521 5 12.7284 5H11.2716C9.94799 5 8.85369 6.0318 8.77599 7.3532L8.49743 12.0881C8.44879 12.9151 7.73894 13.5461 6.91194 13.4974C6.08494 13.4487 5.45398 12.7389 5.50263 11.9119L5.78113 7.17705Z" fill="#87838F"/>
<path d="M3.17975 11.8454C3.27755 10.9796 3.91374 10.3782 4.7797 10.2823C5.9967 10.1475 8.19735 10 12 10C15.9076 10 18.1013 10.1558 19.2769 10.2935C20.0672 10.386 20.66 10.9216 20.7717 11.7093C20.889 12.5371 21 13.8802 21 16C21 18.1198 20.889 19.4629 20.7717 20.2907C20.66 21.0785 20.0672 21.614 19.2769 21.7066C18.1013 21.8442 15.9076 22 12 22C8.0924 22 5.8987 21.8442 4.7231 21.7066C3.93285 21.614 3.34001 21.0785 3.22832 20.2907C3.11095 19.4629 3 18.1198 3 16C3 13.9927 3.08528 12.6817 3.17975 11.8454Z" fill="white"/>
<path fill-rule="evenodd" clip-rule="evenodd" d="M12.9687 16.7502C13.5837 16.409 14 15.7531 14 15C14 13.8955 13.1045 13 12 13C10.8954 13 10 13.8955 10 15C10 15.7531 10.4162 16.409 11.0312 16.7502L10.7875 18.6996C10.763 18.8955 10.7973 19.1012 10.9558 19.2189C11.1368 19.3534 11.4584 19.5 12 19.5C12.5415 19.5 12.8631 19.3534 13.0442 19.2189C13.2027 19.1012 13.2369 18.8955 13.2124 18.6996L12.9687 16.7502Z" fill="#87838F"/>
</svg>
