<svg width="24" height="24" viewBox="0 0 24 24" fill="none" xmlns="http://www.w3.org/2000/svg">
<path d="M2.28099 19.6575C2.36966 20.5161 2.9326 21.1957 3.77687 21.3755C5.1095 21.6592 7.6216 22 12 22C16.3784 22 18.8905 21.6592 20.2231 21.3755C21.0674 21.1957 21.6303 20.5161 21.719 19.6575C21.8505 18.3844 22 16.0469 22 12C22 7.95305 21.8505 5.6156 21.719 4.34251C21.6303 3.48389 21.0674 2.80423 20.2231 2.6245C18.8905 2.34081 16.3784 2 12 2C7.6216 2 5.1095 2.34081 3.77687 2.6245C2.9326 2.80423 2.36966 3.48389 2.28099 4.34251C2.14952 5.6156 2 7.95305 2 12C2 16.0469 2.14952 18.3844 2.28099 19.6575Z" fill="#DCDBDE"/>
<path d="M5.68754 19.5542C4.83967 19.3924 4.27704 18.7169 4.19815 17.8573C4.11482 16.9494 4.02941 15.4957 4.00586 13.2501H7.99954C8.34144 13.2501 8.65964 13.0755 8.84319 12.787L9.51704 11.7281L11.0632 15.8513C11.21 16.2428 11.585 16.5017 12.0032 16.5001C12.4214 16.4986 12.7944 16.237 12.9384 15.8444L14.8642 10.5923L15.8447 12.6759C16.0096 13.0264 16.3621 13.2501 16.7495 13.2501H19.9932C19.9696 15.4957 19.8842 16.9494 19.8009 17.8573C19.722 18.7169 19.1594 19.3924 18.3115 19.5542C17.1898 19.7683 15.2294 20.0001 11.9995 20.0001C8.76959 20.0001 6.80924 19.7683 5.68754 19.5542Z" fill="#87838F"/>
<path d="M19.9975 11.2592C19.9824 8.7215 19.8905 7.1176 19.8011 6.1428C19.7222 5.2832 19.1596 4.60771 18.3117 4.4459C17.19 4.23183 15.2296 4 11.9997 4C8.7698 4 6.80945 4.23183 5.68775 4.4459C4.83988 4.60771 4.27725 5.2832 4.19836 6.1428C4.109 7.1164 4.01725 8.7176 4.00195 11.25H7.4508L8.90605 8.96315C9.1096 8.6433 9.4765 8.46605 9.8535 8.5054C10.2305 8.54475 10.5529 8.7939 10.686 9.1489L11.9892 12.6239L13.8108 7.65575C13.9497 7.277 14.3025 7.0188 14.7055 7.001C15.1086 6.98315 15.4828 7.2092 15.6545 7.5742L17.3843 11.25H19.9975C19.9975 11.2531 19.9975 11.2562 19.9975 11.2592Z" fill="#87838F"/>
</svg>
