<svg width="81" height="32" viewBox="0 0 81 32" fill="none" xmlns="http://www.w3.org/2000/svg">
<path d="M27.4045 26.5602C30.2728 25.6167 35.666 24.3914 40.1766 26.5082C40.3805 26.6039 40.6195 26.6039 40.8234 26.5082C45.3339 24.3914 50.7272 25.6167 53.5955 26.5602C54.5543 26.8756 55.625 26.196 55.625 25.2142V10.6395C55.625 9.84581 55.1442 9.11595 54.3649 8.87341C50.2824 7.60301 44.5626 7.71828 40.7773 9.21928C40.5992 9.28988 40.4008 9.28988 40.2227 9.21928C36.4374 7.71828 30.7176 7.60301 26.6351 8.87341C25.8558 9.11595 25.375 9.84581 25.375 10.6395V25.2142C25.375 26.196 26.4457 26.8756 27.4045 26.5602Z" fill="#87838F"/>
<path d="M52.0603 22.6227C46.5268 22.1621 44.2856 23.2633 41.1757 24.9632C40.7563 25.1924 40.2437 25.1924 39.8243 24.9632C36.7144 23.2633 34.4732 22.1621 28.9397 22.6227C28.5066 22.6588 28.125 22.3518 28.125 21.9553V6.73692C28.125 6.07357 28.6633 5.50778 29.3874 5.4428C34.5967 4.9753 36.7996 6.05534 39.8242 7.70818C40.2436 7.93738 40.7564 7.93738 41.1758 7.70818C44.2004 6.05534 46.4033 4.9753 51.6125 5.4428C52.3367 5.50778 52.875 6.07357 52.875 6.73692V21.9553C52.875 22.3518 52.4934 22.6588 52.0603 22.6227Z" fill="#DCDBDE"/>
<path d="M39.8125 7.70166C39.8164 7.70379 39.8203 7.70593 39.8242 7.70806C40.2436 7.93726 40.7564 7.93726 41.1758 7.70806C41.1797 7.70593 41.1836 7.70379 41.1875 7.70166V24.9567C41.1836 24.9588 41.1796 24.9609 41.1757 24.9631C40.7563 25.1923 40.2437 25.1923 39.8243 24.9631C39.8204 24.9609 39.8164 24.9588 39.8125 24.9567V7.70166Z" fill="#87838F"/>
</svg>
