<svg width="24" height="24" viewBox="0 0 24 24" fill="none" xmlns="http://www.w3.org/2000/svg">
<path d="M1.71405 10.557C1.31412 11.0091 1.49558 11.6243 2.08381 11.7512C2.54439 11.8506 3.17748 11.9615 4.03033 12.0649C4.01005 12.7476 3.99768 13.5396 3.99768 14.4562C3.99768 16.8997 4.0856 18.4585 4.17697 19.4186C4.2608 20.2995 4.85839 20.9706 5.7264 21.1141C6.85475 21.3007 8.8072 21.5 11.9997 21.5C15.1921 21.5 17.1446 21.3007 18.2729 21.1141C19.1409 20.9706 19.7385 20.2995 19.8223 19.4186C19.9137 18.4585 20.0016 16.8997 20.0016 14.4562C20.0016 13.5397 19.9893 12.7477 19.969 12.065C20.8221 11.9616 21.4554 11.8507 21.9161 11.7513C22.5045 11.6244 22.6859 11.009 22.2859 10.5568C21.5839 9.7634 20.2788 8.4108 18.0016 6.40615C15.3646 4.08475 13.5965 3.07488 12.6975 2.65614C12.2505 2.44793 11.7499 2.44796 11.3029 2.65621C10.404 3.07499 8.63605 4.08488 5.9987 6.40615C3.72097 8.41095 2.41582 9.7636 1.71405 10.557Z" fill="#DCDBDE"/>
<path d="M8 18C8 17.5 8.3882 17.0873 8.8877 17.066C9.6084 17.0352 10.7137 17 12 17C13.2863 17 14.3916 17.0352 15.1123 17.066C15.6118 17.0873 16 17.5 16 18C16 18.4999 15.6118 18.9127 15.1123 18.934C14.3916 18.9648 13.2863 19 12 19C10.7137 19 9.6084 18.9648 8.8877 18.934C8.3882 18.9127 8 18.4999 8 18Z" fill="#87838F"/>
</svg>
