<svg width="25" height="24" viewBox="0 0 25 24" fill="none" xmlns="http://www.w3.org/2000/svg">
<path d="M2.57901 19.9202C4.75199 19.2126 8.83775 18.2936 12.2548 19.8812C12.4093 19.953 12.5904 19.953 12.7448 19.8812C16.1619 18.2936 20.2477 19.2126 22.4207 19.9202C23.147 20.1568 23.9582 19.6471 23.9582 18.9107V7.9797C23.9582 7.38445 23.594 6.83705 23.0035 6.65515C19.9107 5.70235 15.5775 5.7888 12.7099 6.91455C12.575 6.9675 12.4247 6.9675 12.2898 6.91455C9.42213 5.7888 5.08896 5.70235 1.99616 6.65515C1.40573 6.83705 1.0415 7.38445 1.0415 7.9797V18.9107C1.0415 19.6471 1.85263 20.1568 2.57901 19.9202Z" fill="#87838F"/>
<path d="M21.2578 16.9671C17.0657 16.6216 15.3679 17.4475 13.0119 18.7224C12.6942 18.8944 12.3058 18.8944 11.9881 18.7224C9.63214 17.4475 7.93427 16.6216 3.74218 16.9671C3.41411 16.9941 3.125 16.7639 3.125 16.4665V5.05275C3.125 4.55524 3.53283 4.13089 4.0814 4.08216C8.02781 3.73153 9.69667 4.54156 11.988 5.7812C12.3058 5.9531 12.6942 5.9531 13.012 5.7812C15.3033 4.54156 16.9722 3.73153 20.9186 4.08216C21.4672 4.13089 21.875 4.55524 21.875 5.05275V16.4665C21.875 16.7639 21.5859 16.9941 21.2578 16.9671Z" fill="#DCDBDE"/>
<path d="M11.979 5.77637C11.982 5.77797 11.9849 5.77957 11.9879 5.78117C12.3056 5.95307 12.6941 5.95307 13.0118 5.78117C13.0148 5.77957 13.0177 5.77797 13.0207 5.77637V18.7176C13.0177 18.7192 13.0147 18.7208 13.0117 18.7225C12.694 18.8944 12.3057 18.8944 11.988 18.7225C11.985 18.7208 11.982 18.7192 11.979 18.7176V5.77637Z" fill="#87838F"/>
</svg>
