<svg width="24" height="24" viewBox="0 0 24 24" fill="none" xmlns="http://www.w3.org/2000/svg">
<path d="M2.09534 11.2701C2.23377 10.8042 2.72728 10.6321 3.21286 10.6126C4.3214 10.5682 6.86075 10.5 12 10.5C17.1392 10.5 19.6786 10.5682 20.7871 10.6126C21.2727 10.6321 21.7663 10.8042 21.9046 11.2701C21.9607 11.4586 22 11.6983 22 12C22 12.3017 21.9607 12.5415 21.9046 12.7299C21.7663 13.1958 21.2727 13.3679 20.7871 13.3874C19.6786 13.4318 17.1392 13.5 12 13.5C6.86075 13.5 4.3214 13.4318 3.21286 13.3874C2.72728 13.3679 2.23377 13.1958 2.09534 12.7299C2.03931 12.5415 2 12.3017 2 12C2 11.6983 2.03931 11.4586 2.09534 11.2701Z" fill="#DCDBDE"/>
<path d="M8.5 15.5C10.433 15.5 12 13.933 12 12C12 10.067 10.433 8.5 8.5 8.5C6.567 8.5 5 10.067 5 12C5 13.933 6.567 15.5 8.5 15.5Z" fill="#87838F"/>
<path d="M21.9046 4.77004C21.7663 4.30421 21.2727 4.13214 20.7871 4.11268C19.6786 4.06825 17.1392 4 12 4C6.86075 4 4.3214 4.06825 3.21285 4.11268C2.72728 4.13214 2.23377 4.30421 2.09534 4.77004C2.03931 4.95857 2 5.19835 2 5.5C2 5.80165 2.03931 6.04145 2.09534 6.22995C2.23377 6.6958 2.72728 6.86785 3.21286 6.88735C4.3214 6.93175 6.86075 7 12 7C17.1392 7 19.6786 6.93175 20.7871 6.88735C21.2727 6.86785 21.7663 6.6958 21.9046 6.22995C21.9607 6.04145 22 5.80165 22 5.5C22 5.19835 21.9607 4.95857 21.9046 4.77004Z" fill="#DCDBDE"/>
<path d="M15.5 9C13.567 9 12 7.433 12 5.5C12 3.567 13.567 2 15.5 2C17.433 2 19 3.567 19 5.5C19 7.433 17.433 9 15.5 9Z" fill="#87838F"/>
<path d="M21.9046 17.7701C21.7663 17.3042 21.2727 17.1321 20.7871 17.1126C19.6786 17.0682 17.1392 17 12 17C6.86075 17 4.3214 17.0682 3.21285 17.1126C2.72728 17.1321 2.23377 17.3042 2.09534 17.7701C2.03931 17.9586 2 18.1983 2 18.5C2 18.8017 2.03931 19.0415 2.09534 19.2299C2.23377 19.6958 2.72728 19.8679 3.21286 19.8874C4.3214 19.9318 6.86075 20 12 20C17.1392 20 19.6786 19.9318 20.7871 19.8874C21.2727 19.8679 21.7663 19.6958 21.9046 19.2299C21.9607 19.0415 22 18.8017 22 18.5C22 18.1983 21.9607 17.9586 21.9046 17.7701Z" fill="#DCDBDE"/>
<path d="M15.5 22C13.567 22 12 20.433 12 18.5C12 16.567 13.567 15 15.5 15C17.433 15 19 16.567 19 18.5C19 20.433 17.433 22 15.5 22Z" fill="#87838F"/>
</svg>
