<svg width="24" height="24" viewBox="0 0 24 24" fill="none" xmlns="http://www.w3.org/2000/svg">
<path d="M12 23C5.92487 23 0.999998 18.0751 0.999998 12C0.999998 5.92487 5.92487 1 12 1C18.0751 1 23 5.92487 23 12C23 18.0751 18.0751 23 12 23Z" fill="#DCDBDE"/>
<path d="M14.1922 6.5C14.7305 6.5 15.0909 6.99091 14.968 7.46152L14.9366 7.55564L13.5938 10.8677H15.2003C15.8308 10.8677 16.1809 11.5161 15.9044 12.0083L15.8404 12.1042L11.0592 18.2849C10.7135 18.7309 10.0216 18.4227 10.0818 17.9127L10.5842 13.6619H8.79976C8.21923 13.6619 7.848 13.0934 8.0605 12.5945L8.0637 12.5878L10.5638 6.97245C10.6245 6.83274 10.7268 6.71337 10.8579 6.62932C10.9889 6.54527 11.1429 6.50028 11.3005 6.5H14.1922Z" fill="#87838F"/>
</svg>
