<svg width="32" height="32" viewBox="0 0 32 32" fill="none" xmlns="http://www.w3.org/2000/svg">
<path d="M29.3332 16C29.3332 23.3638 23.3636 29.3333 15.9998 29.3333C8.63604 29.3333 2.6665 23.3638 2.6665 16C2.6665 8.63616 8.63604 2.66663 15.9998 2.66663C23.3636 2.66663 29.3332 8.63616 29.3332 16Z" fill="#87838F"/>
<path d="M19.2025 23.3332C22.0266 22.0981 24 19.2795 24 16C24 11.5817 20.4183 8 16 8C11.5817 8 8 11.5817 8 16C8 19.2797 9.9736 22.0985 12.798 23.3335C11.0391 24.1027 9.61027 25.4861 8.78253 27.2126C10.8629 28.5545 13.3407 29.3333 16.0005 29.3333C18.6603 29.3333 21.1381 28.5545 23.2185 27.2126C22.3907 25.4859 20.9616 24.1024 19.2025 23.3332Z" fill="#DCDBDE"/>
<path d="M15.9999 20.6667C17.3803 20.6667 18.5647 19.8276 19.0709 18.6317C19.358 17.9536 18.7363 17.3334 17.9999 17.3334H13.9999C13.2635 17.3334 12.6419 17.9536 12.9289 18.6317C13.4351 19.8276 14.6195 20.6667 15.9999 20.6667Z" fill="#87838F"/>
<path d="M13.3335 14.3334C13.3335 14.8856 12.8858 15.3334 12.3335 15.3334C11.7812 15.3334 11.3335 14.8856 11.3335 14.3334C11.3335 13.7811 11.7812 13.3334 12.3335 13.3334C12.8858 13.3334 13.3335 13.7811 13.3335 14.3334Z" fill="#87838F"/>
<path d="M20.6665 14.3334C20.6665 14.8856 20.2188 15.3334 19.6665 15.3334C19.1142 15.3334 18.6665 14.8856 18.6665 14.3334C18.6665 13.7811 19.1142 13.3334 19.6665 13.3334C20.2188 13.3334 20.6665 13.7811 20.6665 14.3334Z" fill="#87838F"/>
</svg>
