<svg width="81" height="32" viewBox="0 0 81 32" fill="none" xmlns="http://www.w3.org/2000/svg">
<path d="M26.7854 14.0759C26.2522 14.6787 26.4941 15.499 27.2784 15.6683C27.8925 15.8007 28.7366 15.9486 29.8738 16.0865C29.8467 16.9967 29.8302 18.0528 29.8302 19.2748C29.8302 22.5329 29.9475 24.6112 30.0693 25.8914C30.1811 27.066 30.9778 27.9607 32.1352 28.152C33.6397 28.4008 36.2429 28.6666 40.4995 28.6666C44.7561 28.6666 47.3594 28.4008 48.8639 28.152C50.0212 27.9607 50.818 27.066 50.9297 25.8914C51.0516 24.6112 51.1688 22.5329 51.1688 19.2748C51.1688 18.0529 51.1523 16.9969 51.1253 16.0866C52.2628 15.9487 53.1071 15.8008 53.7215 15.6683C54.5059 15.4991 54.7479 14.6786 54.2145 14.0757C53.2785 13.0178 51.5383 11.2143 48.5021 8.54145C44.9861 5.44625 42.6286 4.09975 41.4299 3.54144C40.8339 3.26382 40.1665 3.26386 39.5705 3.54153C38.372 4.0999 36.0147 5.44643 32.4983 8.54145C29.4613 11.2145 27.7211 13.0181 26.7854 14.0759Z" fill="#DCCCFF"/>
<path d="M35.1665 24C35.1665 23.3334 35.6841 22.783 36.3501 22.7546C37.311 22.7136 38.7848 22.6666 40.4998 22.6666C42.2149 22.6666 43.6886 22.7136 44.6496 22.7546C45.3156 22.783 45.8332 23.3334 45.8332 24C45.8332 24.6666 45.3156 25.2169 44.6496 25.2454C43.6886 25.2864 42.2149 25.3333 40.4998 25.3333C38.7848 25.3333 37.311 25.2864 36.3501 25.2454C35.6841 25.2169 35.1665 24.6666 35.1665 24Z" fill="#9056F5"/>
</svg>
