<svg width="81" height="32" viewBox="0 0 81 32" fill="none" xmlns="http://www.w3.org/2000/svg">
<path d="M29.2311 10.7328C30.167 9.66911 31.8411 9.90531 33.0017 10.4688C33.6725 10.8081 34.5005 10.5577 34.8535 9.90758C35.2076 9.25558 34.95 8.44851 34.2782 8.10491L34.2761 8.10385C31.9877 6.94011 28.9131 6.98438 27.1398 8.99978C25.6155 10.7322 25.8044 13.4358 27.1068 15.4936C28.4796 17.6626 31.1501 19.3332 35.0001 19.3332C35.7594 19.3332 36.375 18.7358 36.375 17.9988C36.375 17.2618 35.7594 16.6644 35.0001 16.6644C32.0354 16.6644 30.2867 15.4188 29.45 14.0968C28.5427 12.6633 28.7316 11.3006 29.2311 10.7328Z" fill="#87838F"/>
<path d="M51.7689 10.7328C50.8331 9.66911 49.1589 9.90531 47.9983 10.4688C47.3275 10.8081 46.4995 10.5577 46.1465 9.90758C45.7924 9.25558 46.0501 8.44851 46.7218 8.10491L46.7239 8.10385C49.0123 6.94011 52.0869 6.98438 53.8602 8.99978C55.3844 10.7322 55.1956 13.4358 53.8933 15.4936C52.5204 17.6626 49.8499 19.3332 45.9999 19.3332C45.2406 19.3332 44.625 18.7358 44.625 17.9988C44.625 17.2618 45.2406 16.6644 45.9999 16.6644C48.9646 16.6644 50.7133 15.4188 51.5501 14.0968C52.4573 12.6633 52.2684 11.3006 51.7689 10.7328Z" fill="#87838F"/>
<path d="M42.2589 19.9999H38.741L37.8715 24.3941C37.7604 24.9555 37.2842 25.3875 36.6874 25.4683L34.2389 25.7997C33.353 25.9197 32.6432 26.5559 32.4676 27.3874L32.2674 28.3365C32.1585 28.8521 32.5748 29.3332 33.1298 29.3332H47.8702C48.4252 29.3332 48.8414 28.8521 48.7326 28.3365L48.5323 27.3874C48.3568 26.5559 47.647 25.9197 46.761 25.7997L44.3126 25.4683C43.7158 25.3875 43.2396 24.9555 43.1285 24.3941L42.2589 19.9999Z" fill="#87838F"/>
<path d="M32.8357 17.7763C33.4089 20.9846 36.3497 23.3332 39.7935 23.3332H41.2065C44.6503 23.3332 47.5911 20.9846 48.1643 17.7763L49.4154 10.7756C49.5864 9.8185 49.8949 8.88784 50.3324 8.0095L51.1692 6.32953C51.9582 4.74548 51.3136 3.22772 49.473 3.02581C47.6933 2.83058 44.8913 2.6665 40.5 2.6665C36.1087 2.6665 33.3068 2.83058 31.527 3.02581C29.6864 3.22772 29.0418 4.74548 29.8308 6.32954L30.6676 8.0095C31.105 8.88784 31.4136 9.81844 31.5846 10.7756L32.8357 17.7763Z" fill="#DCDBDE"/>
<path d="M39.7204 7.12838C40.0481 6.51254 40.9519 6.51255 41.2796 7.12838L42.3411 9.12324L44.6031 9.55738C45.272 9.68571 45.5423 10.4756 45.0865 10.9696L43.4789 12.7123L43.7733 15.0374C43.8591 15.7151 43.1363 16.2131 42.5095 15.9082L40.5 14.9305L38.4905 15.9082C37.8637 16.2131 37.1409 15.7151 37.2267 15.0374L37.5211 12.7123L35.9135 10.9696C35.4577 10.4756 35.728 9.68571 36.3969 9.55738L38.6589 9.12324L39.7204 7.12838Z" fill="#87838F"/>
</svg>
