<svg width="25" height="24" viewBox="0 0 25 24" fill="none" xmlns="http://www.w3.org/2000/svg">
<path d="M3.96295 8.04969C4.67194 7.25189 5.94021 7.42905 6.81948 7.85165C7.32766 8.10615 7.9549 7.91834 8.22234 7.43074C8.49057 6.94174 8.29542 6.33644 7.78651 6.07874L7.78495 6.07794C6.05125 5.20514 3.72205 5.23834 2.37867 6.74989C1.2239 8.04924 1.36697 10.0769 2.3536 11.6202C3.39363 13.247 5.41677 14.5 8.33339 14.5C8.90865 14.5 9.375 14.0519 9.375 13.4992C9.375 12.9464 8.90865 12.4984 8.33339 12.4984C6.0874 12.4984 4.76267 11.5642 4.12876 10.5726C3.44145 9.49755 3.58453 8.47549 3.96295 8.04969Z" fill="#87838F"/>
<path d="M21.037 8.04969C20.3281 7.25189 19.0598 7.42905 18.1805 7.85165C17.6723 8.10615 17.0451 7.91834 16.7777 7.43074C16.5094 6.94174 16.7046 6.33644 17.2135 6.07874L17.2151 6.07794C18.9487 5.20514 21.278 5.23834 22.6214 6.74989C23.7761 8.04924 23.633 10.0769 22.6464 11.6202C21.6064 13.247 19.5832 14.5 16.6666 14.5C16.0914 14.5 15.625 14.0519 15.625 13.4992C15.625 12.9464 16.0914 12.4984 16.6666 12.4984C18.9126 12.4984 20.2373 11.5642 20.8713 10.5726C21.5585 9.49755 21.4155 8.47549 21.037 8.04969Z" fill="#87838F"/>
<path d="M13.8325 15H11.1674L10.5087 18.2957C10.4245 18.7168 10.0638 19.0408 9.61165 19.1014L7.75676 19.3499C7.08561 19.4398 6.54785 19.917 6.41488 20.5406L6.26316 21.2525C6.18072 21.6392 6.49603 22 6.9165 22H18.0835C18.5039 22 18.8193 21.6392 18.7368 21.2525L18.5851 20.5406C18.4521 19.917 17.9144 19.4398 17.2432 19.3499L15.3883 19.1014C14.9362 19.0408 14.5755 18.7168 14.4913 18.2957L13.8325 15Z" fill="#87838F"/>
<path d="M6.69354 13.3324C7.12781 15.7386 9.35567 17.5 11.9646 17.5H13.0351C15.644 17.5 17.8719 15.7386 18.3061 13.3324L19.2539 8.08185C19.3835 7.364 19.6172 6.666 19.9486 6.00725L20.5825 4.74727C21.1803 3.55923 20.692 2.42092 19.2975 2.26948C17.9493 2.12306 15.8266 2 12.4998 2C9.17312 2 7.05041 2.12306 5.70213 2.26948C4.3077 2.42092 3.81939 3.55924 4.41712 4.74728L5.05105 6.00725C5.38244 6.666 5.61619 7.36395 5.74577 8.08185L6.69354 13.3324Z" fill="#DCDBDE"/>
<path d="M11.9092 5.3464C12.1575 4.88453 12.8422 4.88453 13.0905 5.3464L13.8946 6.84255L15.6083 7.16815C16.115 7.2644 16.3198 7.8568 15.9745 8.22735L14.7566 9.53435L14.9796 11.2782C15.0446 11.7865 14.497 12.16 14.0222 11.9313L12.4998 11.198L10.9775 11.9313C10.5026 12.16 9.95505 11.7865 10.02 11.2782L10.2431 9.53435L9.0252 8.22735C8.67989 7.8568 8.88468 7.2644 9.3914 7.16815L11.1051 6.84255L11.9092 5.3464Z" fill="#87838F"/>
</svg>
