<svg width="60" height="60" viewBox="0 0 60 60" fill="none" xmlns="http://www.w3.org/2000/svg">
<path d="M22.5011 33.7499C15.0571 42.1244 11.7691 49.8061 10.5746 53.186C10.2746 54.0348 10.9937 54.8345 11.8817 54.6865L16.4459 53.9258C17.1199 53.8134 17.8104 53.9818 18.3569 54.3918L21.1136 56.4593C21.7963 56.9713 22.7874 56.673 23.0831 55.8728C24.0096 53.3659 26.1243 47.9208 30.0011 39.2501C33.878 47.9208 35.9925 53.3659 36.9191 55.8728C37.2149 56.673 38.206 56.9713 38.8885 56.4593L41.6453 54.3918C42.1919 53.9818 42.8824 53.8134 43.5563 53.9258L48.1205 54.6865C49.0085 54.8345 49.7276 54.0348 49.4276 53.186C48.2331 49.8061 44.9451 42.1244 37.5011 33.7499H22.5011Z" fill="#9056F5"/>
<path d="M25.5697 4.49457C28.208 2.5626 31.7939 2.5626 34.4321 4.49457L35.8841 5.55793C36.0991 5.71532 36.3586 5.79993 36.6251 5.79943L38.4293 5.79598C41.6921 5.78974 44.5846 7.89378 45.5835 11L46.1446 12.7451C46.2259 12.9976 46.3853 13.2178 46.6 13.3737L48.0886 14.4552C50.7191 16.3662 51.8188 19.7544 50.8118 22.8461L50.2363 24.6124C50.1543 24.8641 50.1543 25.1352 50.2363 25.3868L50.8118 27.1533C51.8188 30.2448 50.7191 33.6332 48.0886 35.5442L46.6 36.6256C46.3853 36.7816 46.2259 37.0017 46.1446 37.2543L45.5835 38.9993C44.5846 42.1056 41.6921 44.2096 38.4293 44.2033L36.6251 44.1999C36.3586 44.1994 36.0991 44.2839 35.8841 44.4414L34.4321 45.5048C31.7939 47.4367 28.208 47.4367 25.5697 45.5048L24.1176 44.4414C23.9028 44.2839 23.6431 44.1994 23.3768 44.1999L21.5726 44.2033C18.3098 44.2096 15.4173 42.1056 14.4184 38.9993L13.8573 37.2543C13.776 37.0017 13.6165 36.7816 13.4019 36.6256L11.9133 35.5442C9.28269 33.6332 8.18305 30.2448 9.19015 27.1533L9.76559 25.3868C9.84755 25.1352 9.84755 24.8641 9.76559 24.6124L9.19015 22.8461C8.18305 19.7544 9.28269 16.3662 11.9133 14.4552L13.4019 13.3737C13.6165 13.2178 13.776 12.9976 13.8573 12.7451L14.4184 11C15.4173 7.89378 18.3098 5.78974 21.5726 5.79598L23.3768 5.79943C23.6431 5.79993 23.9028 5.71532 24.1176 5.55793L25.5697 4.49457Z" fill="white"/>
<path d="M27.8156 12.585C28.7339 10.8048 31.2661 10.8048 32.1844 12.585L34.8363 17.7264L40.5125 18.8503C42.3865 19.2213 43.144 21.5044 41.8669 22.9326L37.8251 27.4529L38.5633 33.4678C38.8038 35.4268 36.7784 36.8664 35.0221 35.9849L30 33.4641L24.9779 35.9849C23.2216 36.8664 21.1963 35.4268 21.4368 33.4678L22.1749 27.4529L18.1331 22.9326C16.856 21.5044 17.6135 19.2213 19.4875 18.8503L25.1638 17.7264L27.8156 12.585Z" fill="#9056F5"/>
</svg>
