<svg width="60" height="60" viewBox="0 0 60 60" fill="none" xmlns="http://www.w3.org/2000/svg">
<path d="M26.7166 6.9363C28.1491 4.35457 31.8509 4.35457 33.2834 6.9363L39.0266 17.2869L50.6669 19.4294C53.6157 19.9721 54.7746 23.5906 52.6929 25.7549L44.6054 34.1628L46.1324 45.7288C46.5217 48.6781 43.5115 50.8965 40.8224 49.6419L30 44.5925L19.1776 49.6419C16.4885 50.8965 13.4783 48.6781 13.8676 45.7288L15.3946 34.1628L7.30718 25.7549C5.22533 23.5906 6.38428 19.9721 9.33318 19.4294L20.9734 17.2869L26.7166 6.9363Z" fill="white"/>
<path d="M18.575 8.44418C17.9694 6.55994 16.3113 5.62562 14.6505 6.71047C14.3221 6.92498 13.9609 7.17319 13.5641 7.46037C13.1675 7.74753 12.8189 8.01317 12.5126 8.25803C10.9639 9.49635 11.3434 11.3562 12.9549 12.5124L15.7141 14.4918C16.5159 15.067 17.5009 15.4984 18.3835 15.0559C18.5435 14.9758 18.7106 14.876 18.8816 14.7523C19.0526 14.6284 19.1995 14.5009 19.3255 14.374C20.0206 13.6745 19.9133 12.6078 19.6119 11.6703L18.575 8.44418Z" fill="#9056F5"/>
<path d="M33.4735 52.5196C34.0951 54.3988 33.3048 56.1256 31.3213 56.2205C30.9291 56.2393 30.4903 56.25 29.9999 56.25C29.5096 56.25 29.0708 56.2393 28.6787 56.2205C26.6951 56.1256 25.9048 54.3988 26.5266 52.5196L27.5909 49.3025C27.9003 48.3676 28.4427 47.4418 29.4177 47.2829C29.5946 47.254 29.7886 47.2368 29.9999 47.2368C30.2113 47.2368 30.4054 47.254 30.5822 47.2829C31.5573 47.4418 32.0997 48.3676 32.409 49.3025L33.4735 52.5196Z" fill="#9056F5"/>
<path d="M45.5835 6.71047C43.9229 5.62562 42.2648 6.55994 41.6592 8.44418L40.6221 11.6703C40.3209 12.6078 40.2135 13.6745 40.9085 14.374C41.0347 14.5009 41.1814 14.6284 41.3524 14.7523C41.5234 14.876 41.6907 14.9758 41.8507 15.0559C42.7333 15.4984 43.7183 15.067 44.52 14.4918L47.2793 12.5124C48.8908 11.3562 49.2703 9.49635 47.7215 8.25803C47.4153 8.01317 47.0667 7.74753 46.6699 7.46037C46.2733 7.17319 45.9119 6.92498 45.5835 6.71047Z" fill="#9056F5"/>
<path d="M53.2723 33.188C55.2581 33.1795 56.6623 34.462 56.1399 36.3708C56.0367 36.7483 55.9113 37.1673 55.7598 37.6319C55.6083 38.0965 55.4624 38.5089 55.3233 38.8748C54.6198 40.725 52.7272 40.9402 51.1256 39.7704L48.3834 37.7677C47.5866 37.1857 46.8703 36.3857 47.0199 35.4127C47.0471 35.2362 47.0907 35.047 47.1559 34.8467C47.2213 34.6464 47.2977 34.4679 47.3798 34.3093C47.8328 33.4344 48.8842 33.2065 49.8722 33.2024L53.2723 33.188Z" fill="#9056F5"/>
<path d="M3.85985 36.3708C3.33745 34.462 4.74172 33.1795 6.72754 33.188L10.1276 33.2024C11.1156 33.2065 12.167 33.4344 12.62 34.3093C12.7021 34.4679 12.7785 34.6464 12.8439 34.8467C12.9091 35.047 12.9527 35.2362 12.9799 35.4127C13.1295 36.3857 12.4133 37.1857 11.6164 37.7677L8.87424 39.7704C7.27265 40.9402 5.37996 40.725 4.67647 38.8748C4.53736 38.5089 4.39151 38.0965 4.23997 37.6319C4.08844 37.1673 3.96315 36.7483 3.85985 36.3708Z" fill="#9056F5"/>
</svg>
