<svg width="60" height="60" viewBox="0 0 60 60" fill="none" xmlns="http://www.w3.org/2000/svg">
<path d="M22.5 10C33.5457 10 42.5 18.9542 42.5 30C42.5 41.0457 33.5457 50 22.5 50C11.4543 50 2.5 41.0457 2.5 30C2.5 18.9542 11.4543 10 22.5 10Z" fill="white"/>
<path d="M47.3704 41.7435C45.4839 43.3311 43.1535 42.2916 43.016 39.8209C42.9399 38.4527 42.8734 36.7272 42.8335 34.565C32.1405 34.4569 23.814 34.2052 19.9175 34.0699C18.5611 34.0227 17.5 32.902 17.5 31.5362V28.7307C17.5 27.3855 18.5303 26.2749 19.8653 26.2051C23.7393 26.0027 32.0922 25.6227 42.833 25.4597C42.8727 23.2862 42.9395 21.5529 43.0159 20.1796C43.1534 17.7084 45.4845 16.6687 47.3714 18.2567C48.4957 19.203 49.8819 20.4309 51.5508 22.0099C54.3483 24.6567 55.9541 26.6461 56.8617 27.9777C57.7129 29.2262 57.7127 30.7726 56.8616 32.0211C55.9539 33.3526 54.348 35.3419 51.5508 37.989C49.8814 39.5687 48.4949 40.7971 47.3704 41.7435Z" fill="#9056F5"/>
</svg>
