<svg width="40" height="40" viewBox="0 0 40 40" fill="none" xmlns="http://www.w3.org/2000/svg">
<circle cx="20" cy="20" r="20" fill="#DCDBDE"/>
<path d="M17.7119 28.3972C13.8363 29.4905 11.4834 29.7258 11.4834 29.7258C11.4834 29.7258 11.03 29.877 10.5765 29.4235C10.123 28.9701 10.2742 28.5166 10.2742 28.5166C10.2742 28.5166 10.5095 26.1637 11.6028 22.2881C11.8855 21.2863 12.7405 20.5584 13.776 20.4525C14.6172 20.3664 15.7398 20.271 17.0682 20.2045L17.8316 19.75L20.25 22.1684L19.7955 22.9318C19.729 24.2602 19.6336 25.3828 19.5475 26.224C19.4416 27.2595 18.7137 28.1145 17.7119 28.3972Z" fill="#F3F3F3"/>
<path d="M10.25 29.4404L13.9964 25.4263C13.9268 25.2757 13.8879 25.1079 13.8879 24.9311C13.8879 24.2788 14.4167 23.75 15.0689 23.75C15.7213 23.75 16.25 24.2788 16.25 24.9311C16.25 25.5834 15.7213 26.1122 15.0689 26.1122C14.892 26.1122 14.7242 26.0733 14.5736 26.0036L10.5596 29.75C10.5042 29.7114 10.448 29.6647 10.3917 29.6084C10.3354 29.5521 10.2887 29.4958 10.25 29.4404Z" fill="#87838F"/>
<path d="M28.9046 14.6004L23.3056 21.7329C22.9705 22.1599 22.5096 22.4715 21.9764 22.5634C21.4414 22.6555 20.6947 22.75 19.8216 22.75C19.8216 22.75 19.5939 22.1757 18.7416 21.3186C17.8893 20.4614 17.25 20.1786 17.25 20.1786C17.25 19.2626 17.3718 18.4886 17.4851 17.9663C17.5883 17.4908 17.8779 17.0871 18.2576 16.7855L25.4215 11.0975C25.6539 10.9129 25.9178 10.7634 26.2136 10.7518C26.6971 10.7328 27.5133 10.8548 28.3296 11.6757C29.1458 12.4966 29.2672 13.3175 29.2482 13.8038C29.2367 14.1013 29.088 14.3667 28.9046 14.6004Z" fill="#87838F"/>
</svg>
