<svg width="22" height="22" viewBox="0 0 22 22" fill="none" xmlns="http://www.w3.org/2000/svg">
<g clip-path="url(#clip0_2760_2330)">
<path d="M11 22C4.92487 22 -1.90735e-06 17.0751 -1.90735e-06 11C-1.90735e-06 4.92487 4.92487 0 11 0C17.0751 0 22 4.92487 22 11C22 17.0751 17.0751 22 11 22Z" fill="#FFE7C0"/>
<path d="M11 1C5.47715 1 1 5.47715 1 11C1 16.5228 5.47715 21 11 21C16.5228 21 21 16.5228 21 11C21 5.47715 16.5228 1 11 1Z" stroke="#FFB02E" stroke-opacity="0.2" stroke-width="2"/>
<path d="M13.4111 4.94995C14.0032 4.94995 14.3996 5.48995 14.2644 6.00762L14.2299 6.11116L12.7528 9.75447H14.52C15.2135 9.75447 15.5986 10.4677 15.2944 11.0091L15.224 11.1146L9.96469 17.9134C9.58449 18.404 8.8234 18.0649 8.88959 17.504L9.44227 12.828H7.47935C6.84077 12.828 6.43241 12.2027 6.66616 11.6539L6.66968 11.6465L9.41974 5.46965C9.48657 5.31596 9.59912 5.18465 9.74329 5.0922C9.88745 4.99975 10.0568 4.95026 10.2301 4.94995H13.4111Z" fill="#FFB02E"/>
</g>
<defs>
<clipPath id="clip0_2760_2330">
<rect width="22" height="22" fill="white"/>
</clipPath>
</defs>
</svg>
