<svg width="40" height="40" viewBox="0 0 40 40" fill="none" xmlns="http://www.w3.org/2000/svg">
<circle cx="20" cy="20" r="20" fill="#F3ECFF"/>
<path d="M10.579 27.9202C12.752 27.2126 16.8378 26.2936 20.2548 27.8812C20.4093 27.953 20.5904 27.953 20.7448 27.8812C24.1619 26.2936 28.2477 27.2126 30.4207 27.9202C31.147 28.1568 31.9582 27.6471 31.9582 26.9107V15.9797C31.9582 15.3845 31.594 14.8371 31.0035 14.6552C27.9107 13.7024 23.5775 13.7888 20.7099 14.9146C20.575 14.9675 20.4247 14.9675 20.2898 14.9146C17.4221 13.7888 13.089 13.7024 9.99616 14.6552C9.40573 14.8371 9.0415 15.3845 9.0415 15.9797V26.9107C9.0415 27.6471 9.85263 28.1568 10.579 27.9202Z" fill="#9056F5"/>
<path d="M29.2578 24.9671C25.0657 24.6216 23.3679 25.4475 21.0119 26.7224C20.6942 26.8944 20.3058 26.8944 19.9881 26.7224C17.6321 25.4475 15.9343 24.6216 11.7422 24.9671C11.4141 24.9941 11.125 24.7639 11.125 24.4665V13.0527C11.125 12.5552 11.5328 12.1309 12.0814 12.0822C16.0278 11.7315 17.6967 12.5416 19.988 13.7812C20.3058 13.9531 20.6942 13.9531 21.012 13.7812C23.3033 12.5416 24.9722 11.7315 28.9186 12.0822C29.4672 12.1309 29.875 12.5552 29.875 13.0527V24.4665C29.875 24.7639 29.5859 24.9941 29.2578 24.9671Z" fill="#DCCCFF"/>
<path d="M19.979 13.7764C19.982 13.778 19.9849 13.7796 19.9879 13.7812C20.3056 13.9531 20.6941 13.9531 21.0118 13.7812C21.0148 13.7796 21.0177 13.778 21.0207 13.7764V26.7176C21.0177 26.7192 21.0147 26.7208 21.0117 26.7225C20.694 26.8944 20.3057 26.8944 19.988 26.7225C19.985 26.7208 19.982 26.7192 19.979 26.7176V13.7764Z" fill="#9056F5"/>
</svg>
