<svg width="40" height="40" viewBox="0 0 40 40" fill="none" xmlns="http://www.w3.org/2000/svg">
<circle cx="20" cy="20" r="20" fill="white"/>
<path d="M11.8939 11.5505L12.9698 11.0625C13.3731 10.8795 13.8632 10.9355 14.1096 11.2781C14.2283 11.4431 14.3499 11.6459 14.4488 11.884C14.6164 12.2871 14.3544 12.7091 13.9296 12.9018L12.8969 13.3701C12.2199 13.6772 11.7972 14.2535 11.7637 14.8859C11.6947 16.1867 11.6667 18.3727 11.7929 21.365C12.5462 20.7968 13.4838 20.46 14.5 20.46C16.1591 20.46 17.6085 21.3578 18.3888 22.6941C18.8992 22.5418 19.4401 22.46 20 22.46C20.56 22.46 21.1008 22.5418 21.6113 22.6941C22.3916 21.3578 23.8409 20.46 25.5 20.46C26.5163 20.46 27.4538 20.7968 28.2071 21.365C28.3333 18.3727 28.3053 16.1867 28.2363 14.8859C28.2028 14.2535 27.7802 13.6772 27.1031 13.3701L26.0705 12.9018C25.6456 12.7091 25.3837 12.2871 25.5512 11.884C25.6501 11.6459 25.7717 11.4431 25.8904 11.2781C26.1369 10.9355 26.6269 10.8795 27.0302 11.0625L28.1061 11.5505C29.4548 12.1622 30.4013 13.3684 30.4765 14.7882C30.5748 16.6416 30.3551 20.0118 30.0032 24.96H30C30 27.4453 27.9853 29.46 25.5 29.46C23.0698 29.46 21.0895 27.5335 21.003 25.1244C20.6882 25.0178 20.3508 24.96 20 24.96C19.6492 24.96 19.3119 25.0178 18.9971 25.1244C18.9105 27.5335 16.9303 29.46 14.5 29.46C12.0147 29.46 10 27.4453 10 24.96H9.99681C9.64494 20.0118 9.42526 16.6416 9.52351 14.7882C9.59877 13.3684 10.5452 12.1622 11.8939 11.5505Z" fill="#9056F5"/>
<path d="M14.5 27.46C15.8807 27.46 17 26.3407 17 24.96C17 23.5792 15.8807 22.46 14.5 22.46C13.1193 22.46 12 23.5792 12 24.96C12 26.3407 13.1193 27.46 14.5 27.46Z" fill="#DCCCFF"/>
<path d="M25.5 27.46C26.8807 27.46 28 26.3407 28 24.96C28 23.5792 26.8807 22.46 25.5 22.46C24.1193 22.46 23 23.5792 23 24.96C23 26.3407 24.1193 27.46 25.5 27.46Z" fill="#DCCCFF"/>
</svg>
